<svg xmlns="http://www.w3.org/2000/svg" width="500" height="500" fill="none" viewBox="0 0 500 500"><circle cx="250" cy="250" r="250" fill="#fff"/><line x1="140.552" x2="416.028" y1="348.13" y2="348.13" stroke="#18181A" stroke-width="34"/><ellipse cx="140.552" cy="348.111" fill="#18181A" rx="15.433" ry="17.019"/><ellipse cx="416.028" cy="348.111" fill="#18181A" rx="15.433" ry="17.019"/><line x1="84.591" x2="212.864" y1="351.128" y2="148.079" stroke="#18181A" stroke-width="34"/><ellipse cx="84.575" cy="351.118" fill="#18181A" rx="13.455" ry="17.019" transform="rotate(-57.7179 84.5745 351.118)"/><ellipse cx="212.848" cy="148.069" fill="#18181A" rx="13.455" ry="17.019" transform="rotate(-57.7179 212.848 148.069)"/><line x1="246.548" x2="414.234" y1="92.596" y2="345.912" stroke="#18181A" stroke-width="34"/><circle cx="246.564" cy="92.585" r="17.019" fill="#18181A" transform="rotate(56.497 246.564 92.5855)"/><circle cx="414.25" cy="345.902" r="17.019" fill="#18181A" transform="rotate(56.497 414.25 345.902)"/><ellipse cx="180.244" cy="286.843" fill="#18181A" rx="16.832" ry="17.019"/><ellipse cx="299.751" cy="286.843" fill="#18181A" rx="16.832" ry="17.019"/><line x1="180.244" x2="299.751" y1="286.862" y2="286.862" stroke="#18181A" stroke-width="34"/><ellipse cx="214.286" cy="153.508" fill="#18181A" rx="21.704" ry="17.019" transform="rotate(57.17 214.286 153.508)"/><ellipse cx="297.83" cy="282.994" fill="#18181A" rx="21.704" ry="17.019" transform="rotate(57.17 297.83 282.994)"/><line x1="214.27" x2="297.814" y1="153.518" y2="283.004" stroke="#18181A" stroke-width="34"/></svg>