<svg xmlns="http://www.w3.org/2000/svg" width="500" height="500" fill="none" viewBox="0 0 500 500"><rect width="500" height="500" fill="#18181A"/><line x1="121.136" x2="444.864" y1="400" y2="400" stroke="#fff" stroke-width="40"/><ellipse cx="121.136" cy="400" fill="#fff" rx="18.136" ry="20"/><ellipse cx="444.864" cy="400" fill="#fff" rx="18.136" ry="20"/><line x1="55.353" x2="206.096" y1="403.534" y2="164.919" stroke="#fff" stroke-width="40"/><ellipse cx="55.353" cy="403.534" fill="#fff" rx="15.812" ry="20" transform="rotate(-57.7179 55.3535 403.534)"/><ellipse cx="206.096" cy="164.919" fill="#fff" rx="15.812" ry="20" transform="rotate(-57.7179 206.096 164.919)"/><line x1="245.717" x2="442.774" y1="99.717" y2="397.404" stroke="#fff" stroke-width="40"/><circle cx="245.717" cy="99.717" r="20" fill="#fff" transform="rotate(56.497 245.717 99.7168)"/><circle cx="442.774" cy="397.404" r="20" fill="#fff" transform="rotate(56.497 442.774 397.404)"/><ellipse cx="167.78" cy="328" fill="#fff" rx="19.78" ry="20"/><ellipse cx="308.22" cy="328" fill="#fff" rx="19.78" ry="20"/><line x1="167.78" x2="308.22" y1="328" y2="328" stroke="#fff" stroke-width="40"/><ellipse cx="207.785" cy="171.31" fill="#fff" rx="25.506" ry="20" transform="rotate(57.17 207.785 171.31)"/><ellipse cx="305.962" cy="323.476" fill="#fff" rx="25.506" ry="20" transform="rotate(57.17 305.962 323.476)"/><line x1="207.785" x2="305.962" y1="171.31" y2="323.476" stroke="#fff" stroke-width="40"/></svg>