<svg xmlns="http://www.w3.org/2000/svg" width="74" height="74" fill="none" viewBox="0 0 74 74"><g clip-path="url(#clip0_1_3)"><path fill="#fff" d="M74 37C74 16.5655 57.4345 0 37 0C16.5655 0 0 16.5655 0 37C0 57.4345 16.5655 74 37 74C57.4345 74 74 57.4345 74 37Z"/><path fill="#fff" d="M74 37C74 16.5655 57.4345 0 37 0C16.5655 0 0 16.5655 0 37C0 57.4345 16.5655 74 37 74C57.4345 74 74 57.4345 74 37Z"/><path fill="#C92043" fill-rule="evenodd" d="M30.8959 21.275C40.0621 22.1598 50.1154 26.7305 55.8818 33.3668C63.2739 41.7717 60.7612 50.1777 50.2632 52.0938C39.7663 54.1586 25.2771 48.8505 17.8853 40.4445C12.2667 33.9556 12.4156 27.4679 17.5896 23.9296L46.7147 45.4586L30.8959 21.275Z" clip-rule="evenodd"/></g><defs><clipPath id="clip0_1_3"><rect width="74" height="74" fill="#fff"/></clipPath></defs></svg>